# xmcd
#
# Track frame offsets:
#	150
#	12048
#	24484
#	35148
#	45760
#	65226
#	76755
#	88384
#	101485
#	110913
#	125721
#	138831
#
# Disc length: 2027 seconds
#
# Revision: 1
# Processed by: cddbd v1.4PL0 Copyright (c) Steve Scherf et al.
# Submitted via: EasyCDDAExtractor 4.6.0.1
#
DISCID=9e07e90c
DTITLE=Major Dundee - Lean On The Wind
DYEAR=2000
DGENRE=Country
TTITLE0=Long Fin Cadillac
TTITLE1=We Got Us Tonight
TTITLE2=Wish Me Luck
TTITLE3=Everybody's Talking 'Bout Garth Brooks
TTITLE4=Lean On The Wind
TTITLE5=Adios Amiga
TTITLE6=Steamroller
TTITLE7=Sexy Country
TTITLE8=Listening To My Heart
TTITLE9=Corpus Christi
TTITLE10=Rock and Roll Cowboy
TTITLE11=True
EXTD=ID3G: 2
EXTT0=
EXTT1=
EXTT2=
EXTT3=
EXTT4=
EXTT5=
EXTT6=
EXTT7=
EXTT8=
EXTT9=
EXTT10=
EXTT11=
PLAYORDER=
